<?xml version="1.0" encoding="UTF-8" standalone="no"?>
<svg width="1476px" height="479px" viewBox="0 0 1476 479" version="1.1" xmlns="http://www.w3.org/2000/svg" xmlns:xlink="http://www.w3.org/1999/xlink" xmlns:sketch="http://www.bohemiancoding.com/sketch/ns">
    <!-- Generator: Sketch 3.3.3 (12081) - http://www.bohemiancoding.com/sketch -->
    <title>Group</title>
    <desc>Created with Sketch.</desc>
    <defs></defs>
    <g id="Page-1" stroke="none" stroke-width="1" fill="none" fill-rule="evenodd" sketch:type="MSPage">
        <g id="Group" sketch:type="MSLayerGroup">
            <path id="Shape" sketch:type="MSShapeGroup" d="M92.314928,0.194516138 L92.1952257,0.194516138 L92.314928,0.194516138 L92.314928,0.194516138 Z"></path>
            <path id="Shape" sketch:type="MSShapeGroup" d="M184.485654,0.194516138 L184.365951,0.194516138 L184.485654,0.194516138 L184.485654,0.194516138 Z"></path>
            <path id="Shape" sketch:type="MSShapeGroup" d="M460.878127,0.194516138 L460.758425,0.194516138 L460.878127,0.194516138 L460.878127,0.194516138 Z"></path>
            <path id="Shape" sketch:type="MSShapeGroup" d="M276.656379,0.194516138 L276.536676,0.194516138 L276.656379,0.194516138 L276.656379,0.194516138 Z"></path>
            <path id="Shape" sketch:type="MSShapeGroup" d="M368.827104,0.194516138 L368.707401,0.194516138 L368.827104,0.194516138 L368.827104,0.194516138 Z"></path>
            <path id="Shape" sketch:type="MSShapeGroup" d="M830.314928,0.194516138 L830.195226,0.194516138 L830.314928,0.194516138 L830.314928,0.194516138 Z"></path>
            <path id="Shape" sketch:type="MSShapeGroup" d="M922.485654,0.194516138 L922.365951,0.194516138 L922.485654,0.194516138 L922.485654,0.194516138 Z"></path>
            <path id="Shape" sketch:type="MSShapeGroup" d="M1198.87813,0.194516138 L1198.75842,0.194516138 L1198.87813,0.194516138 L1198.87813,0.194516138 Z"></path>
            <path id="Shape" sketch:type="MSShapeGroup" d="M1014.65638,0.194516138 L1014.53668,0.194516138 L1014.65638,0.194516138 L1014.65638,0.194516138 Z"></path>
            <path id="Shape" sketch:type="MSShapeGroup" d="M1106.8271,0.194516138 L1106.7074,0.194516138 L1106.8271,0.194516138 L1106.8271,0.194516138 Z"></path>
            <g sketch:type="MSShapeGroup">
                <path id="Shape" d="M460.878127,159.757603 L460.758425,159.757603 L460.878127,159.757603 L460.878127,159.757603 Z"></path>
                <path d="M599.014513,239.479295 L599.134214,239.479295 L645.099876,159.877305 L644.980173,159.757603 L553.048853,159.757603 L552.92915,159.877305 L599.014513,239.479295 L599.014513,239.479295 Z" id="Shape" fill="#F9F9F9"></path>
                <path d="M554.014513,478.764074 L554.134214,478.764074 L600.099876,399.162084 L599.980173,399.042383 L508.048853,399.042383 L507.92915,399.162084 L554.014513,478.764074 L554.014513,478.764074 Z" id="Shape-Copy-3" fill="#F9F9F9"></path>
                <path d="M414.673062,239.479295 L414.792764,239.479295 L460.758425,159.877305 L460.638723,159.757603 L368.5877,159.757603 L368.467997,159.877305 L414.673062,239.479295 L414.673062,239.479295 Z" id="Shape" fill="#F5F5F5"></path>
                <path d="M369.673062,478.764074 L369.792764,478.764074 L415.758425,399.162084 L415.638723,399.042383 L323.5877,399.042383 L323.467997,399.162084 L369.673062,478.764074 L369.673062,478.764074 Z" id="Shape-Copy-4" fill="#F5F5F5"></path>
                <path id="Shape" d="M553.048853,159.757603 L552.92915,159.757603 L553.048853,159.757603 L553.048853,159.757603 Z"></path>
                <path d="M506.843788,239.479295 L506.963489,239.479295 L552.92915,159.877305 L552.809448,159.757603 L460.878127,159.757603 L460.758425,159.877305 L506.843788,239.479295 L506.843788,239.479295 Z" id="Shape" fill="#F7F7F7"></path>
                <path d="M461.843788,478.764074 L461.963489,478.764074 L507.92915,399.162084 L507.809448,399.042383 L415.878127,399.042383 L415.758425,399.162084 L461.843788,478.764074 L461.843788,478.764074 Z" id="Shape-Copy-5" fill="#F7F7F7"></path>
                <path d="M230.451314,239.479295 L230.571016,239.479295 L276.536676,159.877305 L276.416975,159.757603 L184.365951,159.757603 L184.246248,159.877305 L230.451314,239.479295 L230.451314,239.479295 Z" id="Shape" fill="#FCFCFC"></path>
                <path d="M185.451314,478.764074 L185.571016,478.764074 L231.536676,399.162084 L231.416975,399.042383 L139.365951,399.042383 L139.246248,399.162084 L185.451314,478.764074 L185.451314,478.764074 Z" id="Shape-Copy-6" fill="#FCFCFC"></path>
                <path d="M322.502337,239.479295 L322.622039,239.479295 L368.5877,159.877305 L368.467997,159.757603 L276.416975,159.757603 L276.297272,159.877305 L322.502337,239.479295 L322.502337,239.479295 Z" id="Shape" fill="#F9F9F9"></path>
                <path d="M277.502337,478.764074 L277.622039,478.764074 L323.5877,399.162084 L323.467997,399.042383 L231.416975,399.042383 L231.297272,399.162084 L277.502337,478.764074 L277.502337,478.764074 Z" id="Shape-Copy-7" fill="#F9F9F9"></path>
                <path id="Shape" d="M184.485654,159.757603 L184.365951,159.757603 L184.485654,159.757603 L184.485654,159.757603 Z"></path>
                <path d="M276.656379,319.200987 L368.707401,319.200987 L322.622039,239.598997 L276.656379,319.200987 L276.656379,319.200987 Z" id="Shape" fill="#FCFCFC"></path>
                <path d="M322.502337,239.479295 L230.451314,239.479295 L230.331611,239.598997 L276.297272,319.200987 L276.416975,319.200987 L322.502337,239.479295 L322.502337,239.479295 Z" id="Shape" fill="#F6F6F6"></path>
                <path d="M414.673062,239.479295 L322.622039,239.479295 L322.502337,239.598997 L368.467997,319.200987 L368.5877,319.200987 L414.673062,239.479295 L414.673062,239.479295 Z" id="Shape" fill="#F7F7F7"></path>
                <path id="Shape" d="M691.304941,79.9162084 L691.185238,79.9162084 L691.304941,79.9162084 L691.304941,79.9162084 Z"></path>
                <path d="M460.878127,319.200987 L552.92915,319.200987 L506.963489,239.598997 L460.878127,319.200987 L460.878127,319.200987 Z" id="Shape" fill="#F7F7F7"></path>
                <path d="M506.963489,239.479295 L552.92915,319.200987 L553.048853,319.200987 L599.014513,239.598997 L598.89481,239.479295 L506.963489,239.479295 L506.963489,239.479295 Z" id="Shape" fill="#F3F3F3"></path>
                <path id="Shape" d="M414.912467,239.479295 L414.792764,239.479295 L414.912467,239.479295 L414.912467,239.479295 Z"></path>
                <path d="M599.134214,239.479295 L645.099876,319.200987 L645.219578,319.200987 L691.185238,239.598997 L691.065536,239.479295 L599.134214,239.479295 L599.134214,239.479295 Z M553.048853,319.200987 L599.014513,398.92268 L599.134214,398.92268 L645.099876,319.32069 L644.980173,319.200987 L553.048853,319.200987 L553.048853,319.200987 Z" id="Shape" fill="#F8F8F8"></path>
                <path d="M414.912467,399.042383 L506.963489,399.042383 L460.878127,319.32069 L414.912467,399.042383 L414.912467,399.042383 Z" id="Shape" fill="#F7F7F7"></path>
                <path d="M552.92915,319.200987 L460.878127,319.200987 L460.758425,319.32069 L506.724085,398.92268 L506.843788,398.92268 L552.92915,319.200987 L552.92915,319.200987 Z" id="Shape" fill="#FBFBFB"></path>
                <path d="M506.963489,399.042383 L599.014513,399.042383 L553.048853,319.32069 L506.963489,399.042383 L506.963489,399.042383 Z" id="Shape" fill="#F4F4F4"></path>
                <path d="M645.219578,159.757603 L691.185238,239.479295 L691.304941,239.479295 L737.270601,159.877305 L737.150898,159.757603 L645.219578,159.757603 L645.219578,159.757603 Z" id="Shape" fill="#F7F7F7"></path>
                <path d="M600.219578,399.042383 L646.185238,478.764074 L646.304941,478.764074 L692.270601,399.162084 L692.150898,399.042383 L600.219578,399.042383 L600.219578,399.042383 Z" id="Shape-Copy-8" fill="#F7F7F7"></path>
                <path d="M184.365951,159.877305 L92.314928,159.757603 L92.1952257,159.877305 L138.160886,239.479295 L138.280588,239.479295 L184.365951,159.877305 L184.365951,159.877305 Z" id="Shape" fill="#F9F9F9"></path>
                <path d="M139.365951,399.162084 L47.314928,399.042383 L47.1952257,399.162084 L93.1608864,478.764074 L93.280588,478.764074 L139.365951,399.162084 L139.365951,399.162084 Z" id="Shape-Copy-9" fill="#F9F9F9"></path>
                <path d="M184.365951,319.200987 L92.314928,319.200987 L92.1952257,319.32069 L138.160886,398.92268 L138.280588,398.92268 L184.365951,319.200987 L184.365951,319.200987 Z" id="Shape" fill="#F8F8F8"></path>
                <path d="M138.400291,399.042383 L230.451314,399.042383 L184.365951,319.32069 L138.400291,399.042383 L138.400291,399.042383 Z M138.280588,239.598997 L92.314928,319.200987 L184.365951,319.200987 L138.280588,239.598997 L138.280588,239.598997 Z" id="Shape" fill="#F5F5F5"></path>
                <path d="M184.485654,319.200987 L230.451314,239.598997 L230.331611,239.479295 L138.280588,239.479295 L138.160886,239.598997 L184.126547,319.200987 L184.485654,319.200987 L184.485654,319.200987 Z" id="Shape" fill="#FBFBFB"></path>
                <path id="Shape" d="M138.280588,239.479295 L138.400291,239.479295 L138.280588,239.479295 L138.280588,239.479295 Z"></path>
                <path d="M276.536676,319.200987 L184.485654,319.200987 L184.365951,319.32069 L230.331611,398.92268 L230.451314,398.92268 L276.536676,319.200987 L276.536676,319.200987 Z" id="Shape" fill="#F7F7F7"></path>
                <path d="M322.741741,399.042383 L414.792764,399.042383 L368.707401,319.32069 L322.741741,399.042383 L322.741741,399.042383 Z" id="Shape" fill="#F9F9F9"></path>
                <path d="M368.5877,319.200987 L276.536676,319.200987 L276.416975,319.32069 L322.382635,398.92268 L322.502337,398.92268 L368.5877,319.200987 L368.5877,319.200987 Z" id="Shape" fill="#F8F8F8"></path>
                <path d="M460.758425,319.200987 L368.707401,319.200987 L368.5877,319.32069 L414.55336,398.92268 L414.673062,398.92268 L460.758425,319.200987 L460.758425,319.200987 Z" id="Shape" fill="#FAFAFA"></path>
                <path d="M368.827104,319.200987 L460.878127,319.200987 L414.792764,239.598997 L368.827104,319.200987 L368.827104,319.200987 Z" id="Shape" fill="#F1F1F1"></path>
                <path d="M553.048853,159.797623 L507.083192,239.479295 L599.134214,239.479295 L553.048853,159.797623 L553.048853,159.797623 Z M507.083192,79.7564853 L599.134214,79.7564853 L553.048853,0.0748133726 L507.083192,79.7564853 Z" id="Shape" fill="#F7F7F7"></path>
                <path d="M599.253917,80.7185746 L691.304941,80.7185746 L645.219578,0.316724642 L599.253917,80.7185746 Z M46.2295654,399.042383 L138.280588,399.042383 L92.1952257,319.521131 L46.2295654,399.042383 L46.2295654,399.042383 Z" id="Shape" fill="#FAFAFA"></path>
                <path d="M0.144202694,159.757603 L92.1952257,159.757603 L46.2295654,80.0359107 L0.144202694,159.757603 L0.144202694,159.757603 Z" id="Shape" fill="#F3F3F3"></path>
                <path d="M46.2295654,239.479295 L138.280588,239.479295 L92.1952257,159.877305 L46.2295654,239.479295 L46.2295654,239.479295 Z" id="Shape" fill="#F7F7F7"></path>
                <path d="M1.22956538,478.764074 L93.280588,478.764074 L47.1952257,399.162084 L1.22956538,478.764074 L1.22956538,478.764074 Z" id="Shape-Copy-12" fill="#F7F7F7"></path>
                <path id="Shape" d="M0.0245004558,319.200987 L0.144202694,319.200987 L0.0245004558,319.200987 L0.0245004558,319.200987 Z"></path>
                <path d="M138.280588,80.0359107 L92.314928,159.637901 L184.365951,159.637901 L138.280588,80.0359107 L138.280588,80.0359107 Z" id="Shape" fill="#F4F4F4"></path>
                <path d="M92.1952257,1.31672464 L46.2295654,79.9162084 L138.280588,79.9162084 L92.1952257,1.31672464 L92.1952257,1.31672464 Z" id="Shape" fill="#F8F8F8"></path>
                <path d="M276.536676,1.31672464 L230.571016,79.9162084 L322.622039,79.9162084 L276.536676,1.31672464 L276.536676,1.31672464 Z" id="Shape" fill="#F7F7F7"></path>
                <path d="M368.707401,1.31672464 L322.741741,79.9162084 L414.792764,79.9162084 L368.707401,1.31672464 L368.707401,1.31672464 Z" id="Shape" fill="#F5F5F5"></path>
                <path d="M460.878127,1.31672464 L414.912467,79.9162084 L506.963489,79.9162084 L460.878127,1.31672464 L460.878127,1.31672464 Z" id="Shape" fill="#F7F7F7"></path>
                <path d="M184.365951,1.31672464 L138.400291,79.9162084 L230.451314,79.9162084 L184.365951,1.31672464 L184.365951,1.31672464 Z" id="Shape" fill="#F4F4F4"></path>
                <path d="M691.185238,399.042383 L645.219578,319.32069 L599.253917,398.92268 L691.185238,398.92268 L691.185238,399.042383 L691.185238,399.042383 Z" id="Shape" fill="#F0F0F0"></path>
                <path d="M184.485654,319.200987 L276.536676,319.200987 L230.451314,239.598997 L184.485654,319.200987 L184.485654,319.200987 Z" id="Shape" fill="#F0F0F0"></path>
                <path d="M230.451314,80.0359107 L184.485654,159.637901 L276.536676,159.637901 L230.451314,80.0359107 L230.451314,80.0359107 Z" id="Shape" fill="#F7F7F7"></path>
                <path d="M460.878127,159.877305 L414.912467,239.479295 L506.963489,239.479295 L460.878127,159.877305 L460.878127,159.877305 Z" id="Shape" fill="#F8F8F8"></path>
                <path d="M415.878127,399.162084 L369.912467,478.764074 L461.963489,478.764074 L415.878127,399.162084 L415.878127,399.162084 Z" id="Shape-Copy-13" fill="#F8F8F8"></path>
                <path id="Shape" d="M230.451314,239.479295 L230.571016,239.479295 L230.451314,239.479295 L230.451314,239.479295 Z"></path>
                <path d="M368.707401,159.877305 L322.741741,239.479295 L414.792764,239.479295 L368.707401,159.877305 L368.707401,159.877305 Z" id="Shape" fill="#F7F7F7"></path>
                <path d="M323.707401,399.162084 L277.741741,478.764074 L369.792764,478.764074 L323.707401,399.162084 L323.707401,399.162084 Z" id="Shape-Copy-14" fill="#F7F7F7"></path>
                <path d="M276.536676,159.877305 L230.571016,239.479295 L322.622039,239.479295 L276.536676,159.877305 L276.536676,159.877305 Z" id="Shape" fill="#F9F9F9"></path>
                <path d="M231.536676,399.162084 L185.571016,478.764074 L277.622039,478.764074 L231.536676,399.162084 L231.536676,399.162084 Z" id="Shape-Copy-15" fill="#F9F9F9"></path>
                <path d="M322.622039,80.0359107 L276.656379,159.637901 L368.707401,159.637901 L322.622039,80.0359107 L322.622039,80.0359107 Z" id="Shape" fill="#F7F7F7"></path>
                <path d="M599.134214,80.0359107 L553.048853,159.757603 L645.099876,159.757603 L599.134214,80.0359107 L599.134214,80.0359107 Z" id="Shape" fill="#F3F3F3"></path>
                <path d="M506.963489,80.0359107 L460.878127,159.757603 L552.92915,159.757603 L506.963489,80.0359107 L506.963489,80.0359107 Z" id="Shape" fill="#F8F8F8"></path>
                <path d="M691.185238,80.0359107 L645.219578,159.757603 L737.270601,159.757603 L691.185238,80.0359107 L691.185238,80.0359107 Z" id="Shape" fill="#F4F4F4"></path>
                <path d="M691.185238,239.479295 L645.219578,159.877305 L599.253917,239.479295 L691.185238,239.479295 L691.185238,239.479295 Z" id="Shape" fill="#FBFBFB"></path>
                <path d="M646.185238,478.764074 L600.219578,399.162084 L554.253917,478.764074 L646.185238,478.764074 L646.185238,478.764074 Z" id="Shape-Copy-16" fill="#FBFBFB"></path>
                <path d="M645.099876,319.200987 L599.134214,239.598997 L553.048853,319.200987 L645.099876,319.200987 L645.099876,319.200987 Z" id="Shape" fill="#FAFAFA"></path>
                <path d="M737.091048,319.32069 L691.125386,239.7187 L645.040024,319.32069 L737.091048,319.32069 L737.091048,319.32069 Z" id="Shape-Copy" fill="#F3F3F3"></path>
                <path id="Shape" d="M645.219578,159.757603 L645.099876,159.757603 L645.219578,159.757603 L645.219578,159.757603 Z"></path>
                <path d="M645.099876,159.757603 L645.219578,159.757603 L691.185238,80.1556129 L691.065536,80.0359107 L599.014513,80.0359107 L598.89481,80.1556129 L645.099876,159.757603 L645.099876,159.757603 Z" id="Shape" fill="#F3F3F3"></path>
                <path d="M736.390303,0.194516138 L645.219578,0.194516138 L690.686537,79.9162084 L736.390303,0.194516138 Z" id="Shape" fill="#F4F4F4"></path>
                <path d="M230.451314,79.9162084 L230.571016,79.9162084 L276.536676,0.314218376 L276.536676,0.194516138 L184.485654,0.194516138 L184.365951,0.314218376 L230.451314,79.9162084 L230.451314,79.9162084 Z" id="Shape" fill="#FBFBFB"></path>
                <path d="M645.219578,0.314218376 L553.048853,0.194516138 L599.014513,79.9162084 L645.219578,0.314218376 L645.219578,0.314218376 Z" id="Shape" fill="#F8F8F8"></path>
                <path d="M506.843788,79.9162084 L506.963489,79.9162084 L553.048853,0.314218376 L552.92915,0.194516138 L460.878127,0.194516138 L460.878127,0.314218376 L506.843788,79.9162084 L506.843788,79.9162084 Z" id="Shape" fill="#F3F3F3"></path>
                <path d="M414.673062,79.9162084 L414.792764,79.9162084 L460.878127,0.314218376 L460.758425,0.194516138 L368.707401,0.194516138 L368.707401,0.314218376 L414.673062,79.9162084 L414.673062,79.9162084 Z" id="Shape" fill="#F4F4F4"></path>
                <path d="M322.502337,79.9162084 L322.622039,79.9162084 L368.707401,0.314218376 L368.5877,0.194516138 L276.536676,0.194516138 L276.536676,0.314218376 L322.502337,79.9162084 L322.502337,79.9162084 Z" id="Shape" fill="#F4F4F4"></path>
                <path d="M93.1952257,0.314218376 L1.02450046,0.194516138 L47.1098631,79.9162084 L93.1952257,0.314218376 L93.1952257,0.314218376 Z" id="Shape" fill="#F2F2F2"></path>
                <path id="Shape" d="M138.400291,79.9162084 L138.280588,79.9162084 L138.400291,79.9162084 L138.400291,79.9162084 Z"></path>
                <path d="M92.1952257,159.877305 L0.144202694,159.757603 L0.0245004558,159.877305 L45.9901609,239.479295 L46.1098631,239.479295 L92.1952257,159.877305 L92.1952257,159.877305 Z" id="Shape" fill="#F4F4F4"></path>
                <path id="Shape" d="M0.0245004558,159.757603 L0.144202694,159.757603 L0.0245004558,159.757603 L0.0245004558,159.757603 Z"></path>
                <path id="Shape" d="M46.1098631,399.042383 L46.2295654,399.042383 L46.1098631,399.042383 L46.1098631,399.042383 Z"></path>
                <path d="M46.1098631,399.042383 L0.144202694,319.32069 L0.0245004558,319.440392 L0.0245004558,398.92268 L46.1098631,398.92268 L46.1098631,399.042383 L46.1098631,399.042383 Z" id="Shape" fill="#F6F6F6"></path>
                <path d="M0.0245004558,319.200987 L0.144202694,319.200987 L46.2295654,239.598997 L46.1098631,239.479295 L0.0245004558,239.479295 L0.0245004558,319.200987 L0.0245004558,319.200987 Z" id="Shape" fill="#F7F7F7"></path>
                <path d="M0.0245004558,159.757603 L0.144202694,159.757603 L46.1098631,80.1556129 L45.9901609,80.0359107 L0.0245004558,80.0359107 L0.0245004558,159.757603 L0.0245004558,159.757603 Z" id="Shape" fill="#F5F5F5"></path>
                <path id="Shape" d="M46.1098631,239.479295 L46.2295654,239.479295 L46.1098631,239.479295 L46.1098631,239.479295 Z"></path>
                <path d="M92.1952257,319.32069 L0.144202694,319.200987 L0.0245004558,319.32069 L45.9901609,398.92268 L46.1098631,398.92268 L92.1952257,319.32069 L92.1952257,319.32069 Z M92.314928,319.200987 L138.280588,239.598997 L138.160886,239.479295 L46.2295654,239.479295 L46.1098631,239.598997 L92.1952257,319.200987 L92.314928,319.200987 L92.314928,319.200987 Z" id="Shape" fill="#F5F5F5"></path>
                <path d="M460.758425,159.757603 L460.878127,159.757603 L506.843788,80.1556129 L506.724085,80.0359107 L414.673062,80.0359107 L414.55336,80.1556129 L460.758425,159.757603 L460.758425,159.757603 Z" id="Shape" fill="#F6F6F6"></path>
                <path id="Shape" d="M506.963489,79.9162084 L506.843788,79.9162084 L506.963489,79.9162084 L506.963489,79.9162084 Z"></path>
                <path d="M552.92915,159.757603 L553.048853,159.757603 L599.014513,80.1556129 L598.89481,80.0359107 L506.843788,80.0359107 L506.724085,80.1556129 L552.92915,159.757603 L552.92915,159.757603 Z" id="Shape" fill="#FAFAFA"></path>
                <path d="M184.365951,159.757603 L184.485654,159.757603 L230.451314,80.1556129 L230.331611,80.0359107 L138.280588,80.0359107 L138.160886,80.1556129 L184.365951,159.757603 L184.365951,159.757603 Z" id="Shape" fill="#F6F6F6"></path>
                <path d="M276.536676,159.757603 L276.656379,159.757603 L322.622039,80.1556129 L322.502337,80.0359107 L230.451314,80.0359107 L230.331611,80.1556129 L276.536676,159.757603 L276.536676,159.757603 Z" id="Shape" fill="#F6F6F6"></path>
                <path id="Shape" d="M322.741741,79.9162084 L322.622039,79.9162084 L322.741741,79.9162084 L322.741741,79.9162084 Z"></path>
                <path d="M368.5877,159.757603 L368.707401,159.757603 L414.673062,80.1556129 L414.55336,80.0359107 L322.502337,80.0359107 L322.382635,80.1556129 L368.5877,159.757603 L368.5877,159.757603 Z" id="Shape" fill="#F8F8F8"></path>
                <path d="M645.219578,319.200987 L691.185238,398.92268 L691.304941,398.92268 L737.270601,319.32069 L737.150898,319.200987 L645.219578,319.200987 L645.219578,319.200987 Z" id="Shape" fill="#EDEDED"></path>
                <path id="Shape" d="M599.014513,399.042383 L599.134214,399.042383 L599.014513,399.042383 L599.014513,399.042383 Z"></path>
                <path id="Shape" d="M1198.87813,159.757603 L1198.75842,159.757603 L1198.87813,159.757603 L1198.87813,159.757603 Z"></path>
                <path d="M1337.01451,239.479295 L1337.13421,239.479295 L1383.09988,159.877305 L1382.98017,159.757603 L1291.04885,159.757603 L1290.92915,159.877305 L1337.01451,239.479295 L1337.01451,239.479295 Z" id="Shape" fill="#F9F9F9"></path>
                <path d="M1292.01451,478.764074 L1292.13421,478.764074 L1338.09988,399.162084 L1337.98017,399.042383 L1246.04885,399.042383 L1245.92915,399.162084 L1292.01451,478.764074 L1292.01451,478.764074 Z" id="Shape-Copy-18" fill="#F9F9F9"></path>
                <path d="M1152.67306,239.479295 L1152.79276,239.479295 L1198.75842,159.877305 L1198.63872,159.757603 L1106.5877,159.757603 L1106.468,159.877305 L1152.67306,239.479295 L1152.67306,239.479295 Z" id="Shape" fill="#F5F5F5"></path>
                <path d="M1107.67306,478.764074 L1107.79276,478.764074 L1153.75842,399.162084 L1153.63872,399.042383 L1061.5877,399.042383 L1061.468,399.162084 L1107.67306,478.764074 L1107.67306,478.764074 Z" id="Shape-Copy-19" fill="#F5F5F5"></path>
                <path id="Shape" d="M1291.04885,159.757603 L1290.92915,159.757603 L1291.04885,159.757603 L1291.04885,159.757603 Z"></path>
                <path d="M1244.84379,239.479295 L1244.96349,239.479295 L1290.92915,159.877305 L1290.80945,159.757603 L1198.87813,159.757603 L1198.75842,159.877305 L1244.84379,239.479295 L1244.84379,239.479295 Z" id="Shape" fill="#F7F7F7"></path>
                <path d="M1199.84379,478.764074 L1199.96349,478.764074 L1245.92915,399.162084 L1245.80945,399.042383 L1153.87813,399.042383 L1153.75842,399.162084 L1199.84379,478.764074 L1199.84379,478.764074 Z" id="Shape-Copy-20" fill="#F7F7F7"></path>
                <path d="M968.451314,239.479295 L968.571016,239.479295 L1014.53668,159.877305 L1014.41697,159.757603 L922.365951,159.757603 L922.246248,159.877305 L968.451314,239.479295 L968.451314,239.479295 Z" id="Shape" fill="#FCFCFC"></path>
                <path d="M923.451314,478.764074 L923.571016,478.764074 L969.536676,399.162084 L969.416975,399.042383 L877.365951,399.042383 L877.246248,399.162084 L923.451314,478.764074 L923.451314,478.764074 Z" id="Shape-Copy-21" fill="#FCFCFC"></path>
                <path d="M1060.50234,239.479295 L1060.62204,239.479295 L1106.5877,159.877305 L1106.468,159.757603 L1014.41697,159.757603 L1014.29727,159.877305 L1060.50234,239.479295 L1060.50234,239.479295 Z" id="Shape" fill="#F9F9F9"></path>
                <path d="M1015.50234,478.764074 L1015.62204,478.764074 L1061.5877,399.162084 L1061.468,399.042383 L969.416975,399.042383 L969.297272,399.162084 L1015.50234,478.764074 L1015.50234,478.764074 Z" id="Shape-Copy-22" fill="#F9F9F9"></path>
                <path id="Shape" d="M922.485654,159.757603 L922.365951,159.757603 L922.485654,159.757603 L922.485654,159.757603 Z"></path>
                <path d="M1014.65638,319.200987 L1106.7074,319.200987 L1060.62204,239.598997 L1014.65638,319.200987 L1014.65638,319.200987 Z" id="Shape" fill="#F9F9F9"></path>
                <path d="M1060.50234,239.479295 L968.451314,239.479295 L968.331611,239.598997 L1014.29727,319.200987 L1014.41697,319.200987 L1060.50234,239.479295 L1060.50234,239.479295 Z" id="Shape" fill="#F1F1F1"></path>
                <path d="M1152.67306,239.479295 L1060.62204,239.479295 L1060.50234,239.598997 L1106.468,319.200987 L1106.5877,319.200987 L1152.67306,239.479295 L1152.67306,239.479295 Z" id="Shape" fill="#F0F0F0"></path>
                <path id="Shape" d="M1429.30494,79.9162084 L1429.18524,79.9162084 L1429.30494,79.9162084 L1429.30494,79.9162084 Z"></path>
                <path d="M1198.87813,319.200987 L1290.92915,319.200987 L1244.96349,239.598997 L1198.87813,319.200987 L1198.87813,319.200987 Z" id="Shape" fill="#F2F2F2"></path>
                <path d="M1244.96349,239.479295 L1290.92915,319.200987 L1291.04885,319.200987 L1337.01451,239.598997 L1336.89481,239.479295 L1244.96349,239.479295 L1244.96349,239.479295 Z" id="Shape" fill="#F3F3F3"></path>
                <path id="Shape" d="M1152.91247,239.479295 L1152.79276,239.479295 L1152.91247,239.479295 L1152.91247,239.479295 Z"></path>
                <path d="M1337.13421,239.479295 L1383.09988,319.200987 L1383.21958,319.200987 L1429.18524,239.598997 L1429.06554,239.479295 L1337.13421,239.479295 L1337.13421,239.479295 Z M1291.04885,319.200987 L1337.01451,398.92268 L1337.13421,398.92268 L1383.09988,319.32069 L1382.98017,319.200987 L1291.04885,319.200987 L1291.04885,319.200987 Z" id="Shape" fill="#F8F8F8"></path>
                <path d="M1152.91247,399.042383 L1244.96349,399.042383 L1198.87813,319.32069 L1152.91247,399.042383 L1152.91247,399.042383 Z" id="Shape" fill="#F7F7F7"></path>
                <path d="M1290.92915,319.200987 L1198.87813,319.200987 L1198.75842,319.32069 L1244.72409,398.92268 L1244.84379,398.92268 L1290.92915,319.200987 L1290.92915,319.200987 Z" id="Shape" fill="#F8F8F8"></path>
                <path d="M1244.96349,399.042383 L1337.01451,399.042383 L1291.04885,319.32069 L1244.96349,399.042383 L1244.96349,399.042383 Z" id="Shape" fill="#F4F4F4"></path>
                <path d="M1383.21958,159.757603 L1429.18524,239.479295 L1429.30494,239.479295 L1475.2706,159.877305 L1475.1509,159.757603 L1383.21958,159.757603 L1383.21958,159.757603 Z" id="Shape" fill="#F7F7F7"></path>
                <path d="M1338.21958,399.042383 L1384.18524,478.764074 L1384.30494,478.764074 L1430.2706,399.162084 L1430.1509,399.042383 L1338.21958,399.042383 L1338.21958,399.042383 Z" id="Shape-Copy-23" fill="#F7F7F7"></path>
                <path d="M922.365951,159.877305 L830.314928,159.757603 L830.195226,159.877305 L876.160886,239.479295 L876.280588,239.479295 L922.365951,159.877305 L922.365951,159.877305 Z" id="Shape" fill="#F9F9F9"></path>
                <path d="M877.365951,399.162084 L785.314928,399.042383 L785.195226,399.162084 L831.160886,478.764074 L831.280588,478.764074 L877.365951,399.162084 L877.365951,399.162084 Z" id="Shape-Copy-24" fill="#F9F9F9"></path>
                <path d="M783.475666,80.0383614 L691.424643,79.9186598 L691.304941,80.0383614 L737.270601,159.640351 L737.390303,159.640351 L783.475666,80.0383614 L783.475666,80.0383614 Z" id="Shape-Copy-2" fill="#F9F9F9"></path>
                <path d="M829.314928,319.200987 L875.160886,398.92268 L921.365951,319.200987 L829.314928,319.200987 Z" id="Shape" fill="#F8F8F8"></path>
                <path d="M875.400291,399.042383 L967.451314,399.042383 L921.365951,319.32069 L875.400291,399.042383 L875.400291,399.042383 Z M876.280588,239.598997 L830.314928,319.200987 L922.365951,319.200987 L876.280588,239.598997 L876.280588,239.598997 Z" id="Shape" fill="#F5F5F5"></path>
                <path d="M922.485654,319.200987 L968.451314,239.598997 L968.331611,239.479295 L876.280588,239.479295 L876.160886,239.598997 L922.126547,319.200987 L922.485654,319.200987 L922.485654,319.200987 Z" id="Shape" fill="#F9F9F9"></path>
                <path id="Shape" d="M876.280588,239.479295 L876.400291,239.479295 L876.280588,239.479295 L876.280588,239.479295 Z"></path>
                <path d="M1013.53668,319.200987 L921.485654,319.200987 L921.365951,319.32069 L967.331611,398.92268 L967.451314,398.92268 L1013.53668,319.200987 L1013.53668,319.200987 Z" id="Shape" fill="#F7F7F7"></path>
                <path d="M1060.74174,399.042383 L1152.79276,399.042383 L1106.7074,319.32069 L1060.74174,399.042383 L1060.74174,399.042383 Z" id="Shape" fill="#F9F9F9"></path>
                <path d="M1106.5877,319.200987 L1014.53668,319.200987 L1014.41697,319.32069 L1060.38263,398.92268 L1060.50234,398.92268 L1106.5877,319.200987 L1106.5877,319.200987 Z" id="Shape" fill="#F8F8F8"></path>
                <path d="M1198.75842,319.200987 L1106.7074,319.200987 L1106.5877,319.32069 L1152.55336,398.92268 L1152.67306,398.92268 L1198.75842,319.200987 L1198.75842,319.200987 Z" id="Shape" fill="#FAFAFA"></path>
                <path d="M1106.8271,319.200987 L1198.87813,319.200987 L1152.79276,239.598997 L1106.8271,319.200987 L1106.8271,319.200987 Z" id="Shape" fill="#F1F1F1"></path>
                <path d="M1291.04885,159.797623 L1245.08319,239.479295 L1337.13421,239.479295 L1291.04885,159.797623 L1291.04885,159.797623 Z M1245.08319,79.7564853 L1337.13421,79.7564853 L1291.04885,0.0748133726 L1245.08319,79.7564853 Z" id="Shape" fill="#F7F7F7"></path>
                <path d="M1337.25392,80.7185746 L1429.30494,80.7185746 L1383.21958,0.316724642 L1337.25392,80.7185746 Z M783.229565,399.042383 L875.280588,399.042383 L829.195226,319.521131 L783.229565,399.042383 L783.229565,399.042383 Z M691.178543,399.042383 L783.229565,399.042383 L737.144203,319.521131 L691.178543,399.042383 L691.178543,399.042383 Z M783.229565,239.99988 L691.178543,239.99988 L737.263905,319.521131 L783.229565,239.99988 L783.229565,239.99988 Z" id="Shape" fill="#F5F5F5"></path>
                <path d="M737.144203,159.757603 L829.195226,159.757603 L783.229565,80.0359107 L737.144203,159.757603 L737.144203,159.757603 Z" id="Shape" fill="#F3F3F3"></path>
                <path d="M784.229565,239.479295 L876.280588,239.479295 L830.195226,159.877305 L784.229565,239.479295 L784.229565,239.479295 Z" id="Shape" fill="#F7F7F7"></path>
                <path d="M739.229565,478.764074 L831.280588,478.764074 L785.195226,399.162084 L739.229565,478.764074 L739.229565,478.764074 Z" id="Shape-Copy-27" fill="#F7F7F7"></path>
                <path id="Shape" d="M738.0245,319.200987 L738.144203,319.200987 L738.0245,319.200987 L738.0245,319.200987 Z"></path>
                <path d="M876.280588,80.0359107 L830.314928,159.637901 L922.365951,159.637901 L876.280588,80.0359107 L876.280588,80.0359107 Z" id="Shape" fill="#F4F4F4"></path>
                <path d="M829.195226,1.31672464 L783.229565,79.9162084 L875.280588,79.9162084 L829.195226,1.31672464 L829.195226,1.31672464 Z" id="Shape" fill="#FAFAFA"></path>
                <path d="M1014.53668,1.31672464 L968.571016,79.9162084 L1060.62204,79.9162084 L1014.53668,1.31672464 L1014.53668,1.31672464 Z" id="Shape" fill="#F7F7F7"></path>
                <path d="M1106.7074,1.31672464 L1060.74174,79.9162084 L1152.79276,79.9162084 L1106.7074,1.31672464 L1106.7074,1.31672464 Z" id="Shape" fill="#F5F5F5"></path>
                <path d="M1198.87813,1.31672464 L1152.91247,79.9162084 L1244.96349,79.9162084 L1198.87813,1.31672464 L1198.87813,1.31672464 Z" id="Shape" fill="#F7F7F7"></path>
                <path d="M922.365951,1.31672464 L876.400291,79.9162084 L968.451314,79.9162084 L922.365951,1.31672464 L922.365951,1.31672464 Z" id="Shape" fill="#F4F4F4"></path>
                <path d="M1429.18524,399.042383 L1383.21958,319.32069 L1337.25392,398.92268 L1429.18524,398.92268 L1429.18524,399.042383 L1429.18524,399.042383 Z" id="Shape" fill="#F0F0F0"></path>
                <path d="M922.485654,319.200987 L1014.53668,319.200987 L968.451314,239.598997 L922.485654,319.200987 L922.485654,319.200987 Z" id="Shape" fill="#F5F5F5"></path>
                <path d="M968.451314,80.0359107 L922.485654,159.637901 L1014.53668,159.637901 L968.451314,80.0359107 L968.451314,80.0359107 Z" id="Shape" fill="#F7F7F7"></path>
                <path d="M1198.87813,159.877305 L1152.91247,239.479295 L1244.96349,239.479295 L1198.87813,159.877305 L1198.87813,159.877305 Z" id="Shape" fill="#F8F8F8"></path>
                <path d="M1153.87813,399.162084 L1107.91247,478.764074 L1199.96349,478.764074 L1153.87813,399.162084 L1153.87813,399.162084 Z" id="Shape-Copy-28" fill="#F8F8F8"></path>
                <path id="Shape" d="M968.451314,239.479295 L968.571016,239.479295 L968.451314,239.479295 L968.451314,239.479295 Z"></path>
                <path d="M1106.7074,159.877305 L1060.74174,239.479295 L1152.79276,239.479295 L1106.7074,159.877305 L1106.7074,159.877305 Z" id="Shape" fill="#F7F7F7"></path>
                <path d="M1061.7074,399.162084 L1015.74174,478.764074 L1107.79276,478.764074 L1061.7074,399.162084 L1061.7074,399.162084 Z" id="Shape-Copy-29" fill="#F7F7F7"></path>
                <path d="M1014.53668,159.877305 L968.571016,239.479295 L1060.62204,239.479295 L1014.53668,159.877305 L1014.53668,159.877305 Z" id="Shape" fill="#F9F9F9"></path>
                <path d="M969.536676,399.162084 L923.571016,478.764074 L1015.62204,478.764074 L969.536676,399.162084 L969.536676,399.162084 Z" id="Shape-Copy-30" fill="#F9F9F9"></path>
                <path d="M1060.62204,80.0359107 L1014.65638,159.637901 L1106.7074,159.637901 L1060.62204,80.0359107 L1060.62204,80.0359107 Z" id="Shape" fill="#F7F7F7"></path>
                <path d="M1337.13421,80.0359107 L1291.04885,159.757603 L1383.09988,159.757603 L1337.13421,80.0359107 L1337.13421,80.0359107 Z" id="Shape" fill="#F3F3F3"></path>
                <path d="M1244.96349,80.0359107 L1198.87813,159.757603 L1290.92915,159.757603 L1244.96349,80.0359107 L1244.96349,80.0359107 Z" id="Shape" fill="#F8F8F8"></path>
                <path d="M1429.18524,80.0359107 L1383.21958,159.757603 L1475.2706,159.757603 L1429.18524,80.0359107 L1429.18524,80.0359107 Z" id="Shape" fill="#F4F4F4"></path>
                <path d="M1429.18524,239.479295 L1383.21958,159.877305 L1337.25392,239.479295 L1429.18524,239.479295 L1429.18524,239.479295 Z" id="Shape" fill="#FBFBFB"></path>
                <path d="M1384.18524,478.764074 L1338.21958,399.162084 L1292.25392,478.764074 L1384.18524,478.764074 L1384.18524,478.764074 Z" id="Shape-Copy-31" fill="#FBFBFB"></path>
                <path d="M1383.09988,319.200987 L1337.13421,239.598997 L1291.04885,319.200987 L1383.09988,319.200987 L1383.09988,319.200987 Z" id="Shape" fill="#FAFAFA"></path>
                <path d="M1475.09105,319.32069 L1429.12539,239.7187 L1383.04002,319.32069 L1475.09105,319.32069 L1475.09105,319.32069 Z" id="Shape-Copy" fill="#F3F3F3"></path>
                <path id="Shape" d="M1383.21958,159.757603 L1383.09988,159.757603 L1383.21958,159.757603 L1383.21958,159.757603 Z"></path>
                <path d="M1474.3903,0.194516138 L1383.21958,0.194516138 L1428.68654,79.9162084 L1474.3903,0.194516138 Z" id="Shape" fill="#F4F4F4"></path>
                <path d="M968.451314,79.9162084 L968.571016,79.9162084 L1014.53668,0.314218376 L1014.53668,0.194516138 L922.485654,0.194516138 L922.365951,0.314218376 L968.451314,79.9162084 L968.451314,79.9162084 Z" id="Shape" fill="#FBFBFB"></path>
                <path d="M1383.21958,0.314218376 L1291.04885,0.194516138 L1337.01451,79.9162084 L1383.21958,0.314218376 L1383.21958,0.314218376 Z" id="Shape" fill="#F8F8F8"></path>
                <path d="M1152.67306,79.9162084 L1152.79276,79.9162084 L1198.87813,0.314218376 L1198.75842,0.194516138 L1106.7074,0.194516138 L1106.7074,0.314218376 L1152.67306,79.9162084 L1152.67306,79.9162084 Z" id="Shape" fill="#F4F4F4"></path>
                <path d="M1060.50234,79.9162084 L1060.62204,79.9162084 L1106.7074,0.314218376 L1106.5877,0.194516138 L1014.53668,0.194516138 L1014.53668,0.314218376 L1060.50234,79.9162084 L1060.50234,79.9162084 Z" id="Shape" fill="#F4F4F4"></path>
                <path d="M830.195226,0.314218376 L738.0245,0.194516138 L784.109863,79.9162084 L830.195226,0.314218376 L830.195226,0.314218376 Z" id="Shape" fill="#F2F2F2"></path>
                <path id="Shape" d="M876.400291,79.9162084 L876.280588,79.9162084 L876.400291,79.9162084 L876.400291,79.9162084 Z"></path>
                <path d="M830.195226,159.877305 L738.144203,159.757603 L738.0245,159.877305 L783.990161,239.479295 L784.109863,239.479295 L830.195226,159.877305 L830.195226,159.877305 Z" id="Shape" fill="#F4F4F4"></path>
                <path d="M785.195226,399.162084 L693.144203,399.042383 L693.0245,399.162084 L738.990161,478.764074 L739.109863,478.764074 L785.195226,399.162084 L785.195226,399.162084 Z" id="Shape-Copy-32" fill="#F4F4F4"></path>
                <path id="Shape" d="M738.0245,159.757603 L738.144203,159.757603 L738.0245,159.757603 L738.0245,159.757603 Z"></path>
                <path id="Shape" d="M784.109863,399.042383 L784.229565,399.042383 L784.109863,399.042383 L784.109863,399.042383 Z"></path>
                <path id="Shape" d="M784.109863,239.479295 L784.229565,239.479295 L784.109863,239.479295 L784.109863,239.479295 Z"></path>
                <path d="M829.195226,319.32069 L737.144203,319.200987 L737.0245,319.32069 L782.990161,398.92268 L783.109863,398.92268 L829.195226,319.32069 L829.195226,319.32069 Z M830.314928,319.200987 L876.280588,239.598997 L876.160886,239.479295 L784.229565,239.479295 L784.109863,239.598997 L830.195226,319.200987 L830.314928,319.200987 L830.314928,319.200987 Z" id="Shape" fill="#F5F5F5"></path>
                <path d="M1198.75842,159.757603 L1198.87813,159.757603 L1244.84379,80.1556129 L1244.72409,80.0359107 L1152.67306,80.0359107 L1152.55336,80.1556129 L1198.75842,159.757603 L1198.75842,159.757603 Z" id="Shape" fill="#F6F6F6"></path>
                <path id="Shape" d="M1244.96349,79.9162084 L1244.84379,79.9162084 L1244.96349,79.9162084 L1244.96349,79.9162084 Z"></path>
                <path d="M1290.92915,159.757603 L1291.04885,159.757603 L1337.01451,80.1556129 L1336.89481,80.0359107 L1244.84379,80.0359107 L1244.72409,80.1556129 L1290.92915,159.757603 L1290.92915,159.757603 Z" id="Shape" fill="#FAFAFA"></path>
                <path d="M922.365951,159.757603 L922.485654,159.757603 L968.451314,80.1556129 L968.331611,80.0359107 L876.280588,80.0359107 L876.160886,80.1556129 L922.365951,159.757603 L922.365951,159.757603 Z" id="Shape" fill="#F6F6F6"></path>
                <path d="M1014.53668,159.757603 L1014.65638,159.757603 L1060.62204,80.1556129 L1060.50234,80.0359107 L968.451314,80.0359107 L968.331611,80.1556129 L1014.53668,159.757603 L1014.53668,159.757603 Z" id="Shape" fill="#F6F6F6"></path>
                <path id="Shape" d="M1060.74174,79.9162084 L1060.62204,79.9162084 L1060.74174,79.9162084 L1060.74174,79.9162084 Z"></path>
                <path d="M1106.5877,159.757603 L1106.7074,159.757603 L1152.67306,80.1556129 L1152.55336,80.0359107 L1060.50234,80.0359107 L1060.38263,80.1556129 L1106.5877,159.757603 L1106.5877,159.757603 Z" id="Shape" fill="#F8F8F8"></path>
                <path d="M1383.21958,319.200987 L1429.18524,398.92268 L1429.30494,398.92268 L1475.2706,319.32069 L1475.1509,319.200987 L1383.21958,319.200987 L1383.21958,319.200987 Z" id="Shape" fill="#EDEDED"></path>
                <path id="Shape" d="M1337.01451,399.042383 L1337.13421,399.042383 L1337.01451,399.042383 L1337.01451,399.042383 Z"></path>
                <path d="M1429.30494,79.9162084 L1475.2706,159.637901 L1475.2706,79.9162084 L1429.30494,79.9162084 L1429.30494,79.9162084 Z" id="Shape" fill="#F5F5F5"></path>
                <path d="M1475.2706,319.440392 L1429.30494,398.92268 L1475.2706,398.92268 L1475.2706,319.440392 L1475.2706,319.440392 Z" id="Shape" fill="#F6F6F6"></path>
                <path d="M1429.30494,239.479295 L1475.2706,319.200987 L1475.2706,239.479295 L1429.30494,239.479295 L1429.30494,239.479295 Z" id="Shape" fill="#F7F7F7"></path>
                <path d="M1429.30494,398.92268 L1475.2706,478.644372 L1475.2706,398.92268 L1429.30494,398.92268 L1429.30494,398.92268 Z" id="Shape-Copy-10" fill="#F7F7F7"></path>
            </g>
        </g>
    </g>
</svg>