<?xml version="1.0" encoding="UTF-8"?>
<svg width="20px" height="20px" viewBox="0 0 20 20" version="1.1" xmlns="http://www.w3.org/2000/svg" xmlns:xlink="http://www.w3.org/1999/xlink">
    <!-- Generator: Sketch 50 (54983) - http://www.bohemiancoding.com/sketch -->
    <title>icon-dribble</title>
    <desc>Created with Sketch.</desc>
    <defs></defs>
    <g id="Page-1" stroke="none" stroke-width="1" fill="none" fill-rule="evenodd">
        <g id="iPad-Portrait" transform="translate(-175.000000, -3042.000000)" fill="#27C2E1" fill-rule="nonzero">
            <path d="M189.42,3058.42 C189,3056.5 188.5,3054.73 188,3053.17 C188.5,3053.1 189,3053.06 189.58,3053.06 L189.6,3053.06 C190.53,3053.06 191.55,3053.18 192.66,3053.43 C192.28,3055.5 191.08,3057.27 189.42,3058.42 Z M185,3059.8 C183.26,3059.8 181.66,3059.23 180.36,3058.26 C180.64,3057.81 181.23,3056.94 182.18,3056.04 C183.14,3055.11 184.5,3054.15 186.23,3053.58 C186.82,3055.25 187.36,3057.15 187.77,3059.29 C186.91,3059.62 186,3059.8 185,3059.8 Z M177.2,3052 C177.2,3051.96 177.2,3051.93 177.2,3051.89 C177.42,3051.9 177.71,3051.9 178.05,3051.9 L178.06,3051.9 C179.62,3051.89 182.36,3051.76 185.14,3050.89 C185.29,3051.22 185.44,3051.56 185.59,3051.92 C183.73,3052.54 182.27,3053.53 181.19,3054.5 C180.16,3055.46 179.45,3056.39 179.04,3057 C177.9,3055.66 177.2,3053.91 177.2,3052 Z M181.55,3045 C182.1,3045.65 183.18,3047.06 184.34,3049.25 C182,3049.96 179.61,3050.12 178.18,3050.12 C178.14,3050.12 178.1,3050.12 178.06,3050.12 L178.05,3050.12 C177.81,3050.12 177.6,3050.12 177.43,3050.11 C178,3047.87 179.5,3046 181.55,3045 Z M185,3044.2 C186.84,3044.2 188.53,3044.84 189.86,3045.91 C188.84,3047.14 187.5,3048 186.03,3048.65 C185,3046.67 184,3045.25 183.34,3044.38 C183.88,3044.27 184.43,3044.2 185,3044.2 Z M191.13,3047.18 C192.1,3048.42 192.71,3049.96 192.79,3051.63 C191.66,3051.39 190.6,3051.28 189.6,3051.28 L189.59,3051.28 C188.79,3051.28 188.04,3051.35 187.33,3051.47 C187.16,3051.05 187,3050.65 186.81,3050.26 C188.39,3049.57 189.9,3048.58 191.13,3047.18 Z M185,3042 C179.477153,3042 175,3046.47715 175,3052 C175,3054.65216 176.053568,3057.1957 177.928932,3059.07107 C179.804296,3060.94643 182.347835,3062 185,3062 C187.652165,3062 190.195704,3060.94643 192.071068,3059.07107 C193.946432,3057.1957 195,3054.65216 195,3052 C195,3049.34784 193.946432,3046.8043 192.071068,3044.92893 C190.195704,3043.05357 187.652165,3042 185,3042 Z" id="icon-dribble"></path>
        </g>
    </g>
</svg>