<?xml version="1.0" encoding="UTF-8"?>
<svg width="16px" height="17px" viewBox="0 0 16 17" version="1.1" xmlns="http://www.w3.org/2000/svg" xmlns:xlink="http://www.w3.org/1999/xlink">
    <!-- Generator: Sketch 50 (54983) - http://www.bohemiancoding.com/sketch -->
    <title>section heading copy 3</title>
    <desc>Created with Sketch.</desc>
    <defs></defs>
    <g id="projects" stroke="none" stroke-width="1" fill="none" fill-rule="evenodd">
        <g id="iPad-Portrait-Copy-3" transform="translate(-654.000000, -3582.000000)" fill="#FFFFFF">
            <g id="Group-21" transform="translate(642.000000, 3571.000000)">
                <path d="M19.5837144,21.1785657 C19.5837144,21.2589229 19.5435358,21.3493248 19.4832678,21.4095927 L16.1484424,24.7444181 L17.5948727,26.1908484 C17.7154086,26.3113843 17.7857212,26.4720988 17.7857212,26.6428579 C17.7857212,26.9944208 17.4944262,27.2857158 17.1428633,27.2857158 L12.6428579,27.2857158 C12.291295,27.2857158 12,26.9944208 12,26.6428579 L12,22.1428525 C12,21.7912896 12.291295,21.4999946 12.6428579,21.4999946 C12.813617,21.4999946 12.9743315,21.5703072 13.0948674,21.6908431 L14.5412977,23.1372734 L17.8761231,19.802448 C17.936391,19.74218 18.0267929,19.7020014 18.1071501,19.7020014 C18.1875074,19.7020014 18.2779093,19.74218 18.3381772,19.802448 L19.4832678,20.9475386 C19.5435358,21.0078065 19.5837144,21.0982084 19.5837144,21.1785657 Z M27.4285898,12.4999839 L27.4285898,16.9999893 C27.4285898,17.3515522 27.1372948,17.6428472 26.7857319,17.6428472 C26.6149728,17.6428472 26.4542583,17.5725346 26.3337224,17.4519987 L24.8872921,16.0055684 L21.5524667,19.3403938 C21.4921988,19.4006618 21.4017969,19.4408404 21.3214397,19.4408404 C21.2410824,19.4408404 21.1506806,19.4006618 21.0904126,19.3403938 L19.945322,18.1953032 C19.885054,18.1350353 19.8448754,18.0446334 19.8448754,17.9642761 C19.8448754,17.8839189 19.885054,17.793517 19.945322,17.7332491 L23.2801474,14.3984237 L21.8337171,12.9519934 C21.7131812,12.8314575 21.6428686,12.670743 21.6428686,12.4999839 C21.6428686,12.148421 21.9341636,11.857126 22.2857265,11.857126 L26.7857319,11.857126 C27.1372948,11.857126 27.4285898,12.148421 27.4285898,12.4999839 Z" id="section-heading-copy-3"></path>
            </g>
        </g>
    </g>
</svg>